<svg width="26" height="25" viewBox="0 0 26 25" fill="none" xmlns="http://www.w3.org/2000/svg">
<path d="M1 1H3.9619C4.7013 1 5.07101 1 5.34057 1.20731C5.61013 1.41462 5.70504 1.77193 5.89487 2.48655L6.22983 3.7476C6.59027 5.10453 6.77048 5.78299 7.26802 6.19201C7.30147 6.21952 7.33582 6.24593 7.37099 6.2712C7.89403 6.64706 8.59602 6.64706 10 6.64706V6.64706" stroke="#131313" stroke-width="2" stroke-linecap="round"/>
<path d="M22 19.3529H6.24783C5.50006 19.3529 5.12618 19.3529 4.88181 19.1989C4.65716 19.0573 4.49805 18.8322 4.43958 18.5731C4.37597 18.2914 4.50079 17.9389 4.75043 17.2341V17.2341C5.01705 16.4813 5.15036 16.1049 5.38688 15.8255C5.60612 15.5665 5.88764 15.3675 6.20497 15.2473C6.54731 15.1176 6.94662 15.1176 7.74524 15.1176H16" stroke="#131313" stroke-width="2" stroke-linecap="round" stroke-linejoin="round"/>
<path d="M19.2978 15.1176H8.67695C7.70692 15.1176 6.87673 14.4216 6.70759 13.4664L5.81194 8.40861C5.64924 7.48984 6.3559 6.64706 7.28896 6.64706H23.3364C24.0906 6.64706 24.5734 7.45016 24.2195 8.11621L21.064 14.056C20.7169 14.7093 20.0376 15.1176 19.2978 15.1176Z" fill="#131313" stroke="#131313" stroke-width="2" stroke-linecap="round"/>
<ellipse cx="20.5" cy="23.5882" rx="1.5" ry="1.41176" fill="#131313"/>
<ellipse cx="8.5" cy="23.5882" rx="1.5" ry="1.41176" fill="#131313"/>
</svg>
