<svg width="126" height="159" viewBox="0 0 126 159" fill="none" xmlns="http://www.w3.org/2000/svg">
<path d="M0.000198364 1.99999V146.172C0.000198364 146.702 0.210908 147.211 0.585973 147.586L11.4142 158.414C11.7893 158.789 12.298 159 12.8284 159H88.9999C90.1045 159 90.9999 158.105 90.9999 157V156C90.9999 154.895 91.8954 154 92.9999 154H113C114.105 154 115 154.895 115 156V157C115 158.105 115.895 159 117 159H124C125.105 159 126 158.105 126 157L126 6.99999V1.99999C126 0.895423 125.105 -7.62939e-06 124 -7.62939e-06H2.0002C0.895629 -7.62939e-06 0.000198364 0.895419 0.000198364 1.99999Z" fill="#EDEDED"/>
</svg>
