<svg width="24" height="21" viewBox="0 0 24 21" fill="none" xmlns="http://www.w3.org/2000/svg">
<path fill-rule="evenodd" clip-rule="evenodd" d="M5.66667 1.86222C5.66667 1.15706 4.95643 0.673399 4.3003 0.931746L0.633633 2.37547C0.251325 2.52601 0 2.89507 0 3.30594V19.5312C0 20.2364 0.710239 20.72 1.36637 20.4617L5.03303 19.018C5.41534 18.8674 5.66667 18.4984 5.66667 18.0875V1.86222ZM7.66667 17.8371C7.66667 18.2973 7.9808 18.6981 8.42771 18.8081L15.0944 20.4487C15.7246 20.6038 16.3333 20.1267 16.3333 19.4777V3.16262C16.3333 2.70238 16.0192 2.30157 15.5723 2.19159L8.90563 0.550989C8.27538 0.395891 7.66667 0.872966 7.66667 1.52202V17.8371ZM18.967 1.98173C18.5847 2.13226 18.3333 2.50132 18.3333 2.9122V19.1375C18.3333 19.8426 19.0436 20.3263 19.6997 20.0679L23.3664 18.6242C23.7487 18.4737 24 18.1046 24 17.6937V1.46847C24 0.763317 23.2898 0.279655 22.6336 0.538002L18.967 1.98173Z" fill="#131313"/>
</svg>
