<svg width="26" height="26" viewBox="0 0 26 26" fill="none" xmlns="http://www.w3.org/2000/svg">
<rect x="0.682232" y="0.68211" width="24.6355" height="24.6355" rx="1.9066" fill="#085D68" stroke="#3DFFFB" stroke-width="0.635535"/>
<path d="M1.00024 7.73022L1.79909 8.42921C1.93701 8.54989 2.01612 8.72423 2.01612 8.9075V17.0926C2.01612 17.2759 1.93701 17.4502 1.79908 17.5709L1.00024 18.2699V7.73022Z" fill="#3DFFFB"/>
<path d="M25 18.2699L24.2012 17.5709C24.0632 17.4502 23.9841 17.2759 23.9841 17.0926L23.9841 8.90749C23.9841 8.72422 24.0632 8.54988 24.2012 8.4292L25 7.73021L25 18.2699Z" fill="#3DFFFB"/>
<path fill-rule="evenodd" clip-rule="evenodd" d="M10.6793 3.78221L10.6394 4.66398L11.6065 5.25997L12.057 3.8445C11.7764 3.79015 11.1882 3.74634 10.6793 3.78221ZM10.2211 7.72597L7.25701 5.74549C7.25701 5.74549 7.5722 5.47084 8.07566 5.24347C8.57913 5.0161 9.0766 4.92374 9.0766 4.92374L10.2211 7.72597ZM8.03922 8.32498L13.7472 11.1411L11.869 8.1476L14.5103 8.45448L13.6127 6.06463C17.4109 6.4375 20.3963 10.2498 20.3963 14.8978C20.3963 15.0688 20.3923 15.2386 20.3843 15.4072C17.9731 16.5221 16.3965 17.8519 16.6846 18.6419C16.7693 18.8741 17.0072 19.0383 17.3661 19.1366C17.6635 19.2181 17.781 19.6253 17.5137 19.7789C16.1476 20.5642 14.617 21.0041 13.0007 21.0041C11.3843 21.0041 9.85355 20.5642 8.4874 19.7788C8.22013 19.6252 8.33766 19.2181 8.63498 19.1366C8.99378 19.0382 9.23169 18.874 9.31635 18.6419C9.60437 17.852 8.02808 16.5222 5.617 15.4074C5.61263 15.3148 5.60943 15.2219 5.60738 15.1286C5.60578 15.0519 5.60498 14.975 5.60498 14.8978C5.60498 12.2908 6.54419 9.94674 8.03922 8.32498ZM12.0196 14.2949C12.0196 15.4763 11.0619 16.434 9.88047 16.434C8.699 16.434 7.7413 15.4763 7.7413 14.2949C7.7413 13.1134 8.699 12.1557 9.88047 12.1557C11.0619 12.1557 12.0196 13.1134 12.0196 14.2949ZM16.1208 16.434C17.3022 16.434 18.2599 15.4763 18.2599 14.2949C18.2599 13.1134 17.3022 12.1557 16.1208 12.1557C14.9393 12.1557 13.9816 13.1134 13.9816 14.2949C13.9816 15.4763 14.9393 16.434 16.1208 16.434ZM13.0874 16.3384L14.1698 19.7338C14.1698 19.7338 13.4572 19.9161 13.0006 19.9161C12.5441 19.9161 11.8315 19.7338 11.8315 19.7338L12.9138 16.3384C12.9408 16.2537 13.0605 16.2537 13.0874 16.3384Z" fill="#3DFFFB"/>
</svg>
