<svg width="26" height="26" viewBox="0 0 26 26" fill="none" xmlns="http://www.w3.org/2000/svg">
<rect x="0.682232" y="0.682232" width="24.6355" height="24.6355" rx="1.9066" fill="#085D68" stroke="#3DFFFB" stroke-width="0.635535"/>
<path d="M1.00024 7.7301L1.79909 8.42909C1.93701 8.54977 2.01612 8.72411 2.01612 8.90738V17.0925C2.01612 17.2758 1.93701 17.4501 1.79908 17.5708L1.00024 18.2698V7.7301Z" fill="#3DFFFB"/>
<path d="M25.0005 18.2699L24.2016 17.5709C24.0637 17.4502 23.9846 17.2759 23.9846 17.0926L23.9846 8.90749C23.9846 8.72422 24.0637 8.54988 24.2016 8.4292L25.0005 7.73021L25.0005 18.2699Z" fill="#3DFFFB"/>
<path fill-rule="evenodd" clip-rule="evenodd" d="M15.8318 7.23552L15.6317 11.8701C14.8139 11.7825 14.1036 11.6718 13.7309 11.4921L13.7041 11.4646C13.5512 11.3081 13.3731 11.1346 13.1791 10.9535L12.7463 6.69526C13.5983 6.7441 15.7727 6.88784 15.8145 7.08477C15.8226 7.12294 15.8281 7.17493 15.8318 7.23552ZM14.378 13.3565C14.4506 13.0563 14.4246 12.6995 14.3103 12.3174C15.49 12.1648 17.7322 12.3904 18.8917 12.5685C18.721 13.9763 18.4663 15.3178 18.2597 15.606C17.821 16.2179 15.8145 17.0194 15.8145 17.0194C15.8552 17.2776 16.7104 19.7213 16.7104 19.7213C14.4381 20.8377 10.0731 20.2297 9.03917 19.7213C9.03917 19.7213 9.9026 17.3623 9.9026 17.2368C8.02741 15.9311 6.95031 13.7516 6.47488 12.7895C6.42927 12.6973 6.3892 12.6162 6.35449 12.5481C5.95799 11.7709 8.51638 9.89799 8.51638 9.89799L8.5069 9.85472C8.56723 9.81085 8.62786 9.76742 8.68848 9.72474C8.98271 9.5176 9.27529 9.32904 9.53133 9.19257C9.65935 9.12433 9.7771 9.06973 9.88054 9.03232C9.98485 8.99461 10.0704 8.97595 10.1354 8.97595C10.2264 8.97595 10.3576 9.01562 10.5236 9.09486C10.6876 9.1731 10.8778 9.28612 11.0844 9.42422C11.4974 9.70032 11.9702 10.0731 12.4191 10.4581C12.8679 10.843 13.2914 11.2389 13.6058 11.5606C13.763 11.7216 13.8921 11.8632 13.9832 11.975C14.0288 12.031 14.064 12.0785 14.0883 12.1166C14.1143 12.1572 14.1224 12.1792 14.1235 12.1862L14.1222 12.1864L14.1267 12.1991C14.2217 12.4641 14.2407 12.8442 14.1269 13.1822C14.0526 13.403 13.9225 13.6041 13.7207 13.7445C13.689 13.7494 13.6519 13.7696 13.6098 13.8115C13.5329 13.8515 13.4475 13.8838 13.353 13.9067C12.6521 13.9429 12.0717 13.8488 11.5812 13.6889C11.3228 13.5805 11.0449 13.447 10.7472 13.2861C10.738 13.2609 10.7259 13.2391 10.7139 13.2246L9.87611 12.7279L8.91016 12.1282C9.13295 12.3647 9.64721 12.9019 10.6956 13.4879C10.7082 13.4824 10.7188 13.4754 10.7276 13.4673C10.9676 13.5984 11.234 13.72 11.5332 13.8179C11.813 13.9351 12.0715 14.0239 12.3091 14.0868C12.7501 14.2037 13.1225 14.2323 13.4267 14.1855C13.23 14.9402 13.3175 16.441 13.3797 16.1342C13.3948 16.0598 13.4133 15.9321 13.4363 15.7728L13.4363 15.7728L13.4363 15.7728C13.5047 15.2988 13.6135 14.5449 13.7959 14.0779C14.1071 13.9345 14.2997 13.6798 14.378 13.3565ZM7.98636 6.67707C7.89278 6.94414 8.33528 9.05733 8.47514 9.70798C8.5198 9.67578 8.56457 9.64385 8.60934 9.61233C8.90586 9.40357 9.20361 9.21147 9.46666 9.07125C9.59818 9.00115 9.72217 8.9434 9.8338 8.90304C9.94456 8.86299 10.0474 8.83848 10.1354 8.83847C10.2584 8.83847 10.4128 8.88964 10.5828 8.97079C10.755 9.05294 10.9513 9.16986 11.1608 9.30994C11.58 9.59021 12.0574 9.96679 12.5086 10.3538C12.5677 10.4044 12.6263 10.4552 12.6843 10.506L12.6657 10.4863L12.4144 6.67733L12.409 6.67707C12.409 6.67707 12.3542 5.8419 12.2254 5.67164C12.0967 5.50137 8.09717 6.36082 7.98636 6.67707ZM13.3787 14.0419C13.4144 14.0335 13.449 14.0238 13.4824 14.013C13.4791 14.0211 13.4759 14.0294 13.4728 14.0378C13.284 14.0757 13.0593 14.0809 12.7967 14.0458C12.9777 14.0544 13.1674 14.0542 13.3665 14.0437L13.3665 14.0448L13.3787 14.0419ZM13.8382 13.829C13.8458 13.8488 13.8506 13.8702 13.8525 13.8911C14.0566 13.7615 14.1857 13.5666 14.2444 13.3241C14.2549 13.2806 14.2632 13.2354 14.2692 13.1888C14.2654 13.2013 14.2614 13.2137 14.2572 13.2261C14.1795 13.4568 14.0446 13.6719 13.8382 13.829ZM16.8967 11.9886C16.6638 11.9682 16.4305 11.9479 16.2012 11.9265V8.19011C16.9861 8.29022 18.7132 8.55502 18.9615 8.97204C19.1534 9.29422 19.0949 10.74 18.9337 12.2055C18.35 12.1155 17.6256 12.0522 16.8968 11.9886L16.8967 11.9886ZM3.60571 10.8251L6.7917 16.4104L3.60571 13.8537V10.8251ZM3.60571 7.4113L4.70704 8.27664L5.65103 12.1706L3.60571 7.4113ZM19.9952 8.88342L21.5517 6.54875L19.9952 11.1695V8.88342ZM22.3951 9.34761L18.2608 17.2758L21.471 14.7952L22.3951 9.34761Z" fill="#3DFFFB"/>
</svg>
