<svg width="26" height="26" viewBox="0 0 26 26" fill="none" xmlns="http://www.w3.org/2000/svg">
<rect x="0.682232" y="0.682232" width="24.6355" height="24.6355" rx="1.9066" fill="#085D68" stroke="#3DFFFB" stroke-width="0.635535"/>
<path d="M1.00024 7.73022L1.79909 8.42921C1.93701 8.54989 2.01612 8.72423 2.01612 8.9075V17.0926C2.01612 17.2759 1.93701 17.4502 1.79908 17.5709L1.00024 18.2699V7.73022Z" fill="#3DFFFB"/>
<path d="M25.0002 18.2699L24.2014 17.5709C24.0635 17.4502 23.9844 17.2759 23.9844 17.0926L23.9844 8.90749C23.9844 8.72422 24.0635 8.54988 24.2014 8.4292L25.0002 7.73021L25.0002 18.2699Z" fill="#3DFFFB"/>
<path fill-rule="evenodd" clip-rule="evenodd" d="M6.04565 5.95264H19.9534C19.9534 5.95264 19.8424 12.8925 18.8472 15.5072C17.9939 16.618 12.9582 20.0474 12.9582 20.0474C12.9582 20.0474 7.79477 16.618 7.06922 15.5072C6.13413 12.8925 6.04565 5.95264 6.04565 5.95264ZM7.49623 7.23364H7.73912H18.2605H18.5041L18.4987 7.47726L18.2605 7.47196L18.4987 7.47735L18.4987 7.47756L18.4987 7.47834L18.4986 7.4813L18.4984 7.4928L18.4972 7.53739C18.4962 7.57646 18.4945 7.63386 18.4922 7.70753C18.4876 7.85486 18.4801 8.0673 18.4687 8.32828C18.4461 8.85009 18.4081 9.56667 18.3465 10.3453C18.2245 11.8898 18.0073 13.7202 17.6191 14.7402L17.6066 14.7729L17.5853 14.8007C17.4049 15.0355 17.0254 15.3701 16.5835 15.7267C16.134 16.0893 15.5971 16.4925 15.0824 16.868C14.5673 17.2437 14.0726 17.5931 13.7067 17.8485C13.5238 17.9762 13.3729 18.0805 13.2678 18.1529L13.146 18.2365L13.114 18.2584L13.1057 18.264L13.1036 18.2655L13.1031 18.2658L13.1029 18.2659L12.9687 18.069L12.8368 18.2675L12.8367 18.2674L12.8361 18.267L12.8339 18.2656L12.8255 18.2599L12.7926 18.238L12.6678 18.1543C12.5602 18.0819 12.4059 17.9776 12.2191 17.8498C11.8456 17.5943 11.3416 17.2447 10.8201 16.8687C10.2991 16.4931 9.75843 16.0894 9.3125 15.7259C9.08962 15.5442 8.88819 15.3708 8.72385 15.2147C8.56263 15.0616 8.42556 14.9144 8.34159 14.7858L8.3262 14.7622L8.31672 14.7357C7.95245 13.7172 7.751 11.8885 7.63878 10.3438C7.58223 9.56536 7.54776 8.84894 7.52742 8.32723C7.51725 8.0663 7.51061 7.85392 7.50651 7.70663C7.50446 7.63299 7.50304 7.57561 7.50214 7.53656L7.50115 7.492L7.50091 7.48051L7.50086 7.47755L7.50084 7.47678L7.50084 7.47657L7.73912 7.47196L7.50084 7.47648L7.49623 7.23364ZM12.9687 18.069L13.1029 18.266L12.9704 18.3562L12.8369 18.2675L12.9687 18.069ZM7.98345 7.71029C7.98754 7.8552 7.994 8.05956 8.00371 8.30866C8.0239 8.8267 8.05811 9.53757 8.11418 10.3093C8.22609 11.8496 8.42283 13.5932 8.75556 14.547C8.81154 14.6259 8.91022 14.7343 9.05213 14.8691C9.2045 15.0139 9.39586 15.1789 9.61364 15.3564C10.049 15.7113 10.5811 16.1088 11.0989 16.4821C11.6161 16.8551 12.1167 17.2023 12.4882 17.4564C12.6738 17.5834 12.8271 17.687 12.9339 17.7588L12.9671 17.7811L12.9975 17.7603C13.1019 17.6884 13.2519 17.5847 13.4339 17.4576C13.798 17.2035 14.2899 16.8561 14.8015 16.4829C15.3135 16.1094 15.8433 15.7114 16.2842 15.3557C16.7116 15.0109 17.0353 14.7214 17.1863 14.5368C17.5386 13.5833 17.7499 11.8451 17.8714 10.3078C17.9323 9.53625 17.9701 8.82554 17.9925 8.30761C18.0033 8.05908 18.0106 7.85511 18.0152 7.71029H7.98345ZM13.6336 11.3125L13.0002 7.77284L12.3669 11.3125L8.50753 12.2655L12.3669 13.2186L13.0002 16.7582L13.6336 13.2186L17.4929 12.2655L13.6336 11.3125Z" fill="#3DFFFB"/>
</svg>
