<svg width="26" height="26" viewBox="0 0 26 26" fill="none" xmlns="http://www.w3.org/2000/svg">
<rect x="0.682232" y="0.682232" width="24.6355" height="24.6355" rx="1.9066" fill="#085D68" stroke="#3DFFFB" stroke-width="0.635535"/>
<path d="M1 7.7301L1.79884 8.42909C1.93676 8.54977 2.01587 8.72411 2.01587 8.90738V17.0925C2.01587 17.2758 1.93676 17.4501 1.79884 17.5708L1 18.2698V7.7301Z" fill="#3DFFFB"/>
<path d="M24.9998 18.2699L24.2009 17.5709C24.063 17.4502 23.9839 17.2759 23.9839 17.0926L23.9839 8.90749C23.9839 8.72422 24.063 8.54988 24.2009 8.4292L24.9998 7.73021L24.9998 18.2699Z" fill="#3DFFFB"/>
<path fill-rule="evenodd" clip-rule="evenodd" d="M4.29879 15.4625C6.78458 15.5748 8.02121 15.6862 8.39343 15.7356L3.56714 10.164L8.0118 10.8487C8.0118 10.8487 8.47981 8.97093 8.9815 7.8061C9.4832 6.64127 10.4764 5.00984 10.4764 5.00984L10.3193 9.13503L14.7812 4.63672L14.174 8.07284C15.4162 8.06386 18.5445 8.53884 21.4017 10.5246L21.4715 10.5732L21.3936 10.5694C18.8126 10.4435 17.534 10.3252 17.1551 10.2742L21.5826 15.7223L17.8572 14.8769C18.062 16.2001 17.7571 18.1387 15.0393 20.7922L15.0001 20.8306L15.0082 16.8422L10.6924 21.3634L11.2802 17.9225C10.0779 17.9375 7.05308 17.478 4.29051 15.5071L4.22327 15.4591L4.29879 15.4625ZM8.14568 13.6991C9.42954 13.9135 10.0652 14.0481 10.2557 14.0965L8.05254 10.99L10.2372 11.6758C10.2372 11.6758 10.7674 10.5062 10.9456 10.1936C11.1238 9.88097 11.8319 8.89829 11.8319 8.89829L11.612 10.9021L14.1707 8.92515L13.6698 10.6133C14.3149 10.6877 15.9125 11.1252 17.2878 12.3046L17.3214 12.3335L17.2812 12.3266C15.9486 12.0993 15.2916 11.9586 15.0977 11.9089L17.1006 14.9281L15.2131 14.2665C15.2478 14.9444 14.9848 15.8992 13.431 17.0599L13.4085 17.0767L13.6284 15.073L11.1444 17.0707L11.6354 15.3789C11.0107 15.3101 9.46595 14.8869 8.13898 13.721L8.10668 13.6926L8.14568 13.6991Z" fill="#3DFFFB"/>
<path d="M12.4058 12.0761C12.4058 12.4234 12.1243 12.705 11.777 12.705C11.4296 12.705 11.1481 12.4234 11.1481 12.0761C11.1481 11.7288 11.4296 11.4472 11.777 11.4472C12.1243 11.4472 12.4058 11.7288 12.4058 12.0761Z" fill="#3DFFFB"/>
<path d="M14.3564 13.2581C14.3564 13.5068 14.1547 13.7085 13.906 13.7085C13.6572 13.7085 13.4556 13.5068 13.4556 13.2581C13.4556 13.0093 13.6572 12.8077 13.906 12.8077C14.1547 12.8077 14.3564 13.0093 14.3564 13.2581Z" fill="#3DFFFB"/>
<path d="M12.6114 14.278C12.6114 14.4344 12.4846 14.5612 12.3282 14.5612C12.1718 14.5612 12.045 14.4344 12.045 14.278C12.045 14.1216 12.1718 13.9948 12.3282 13.9948C12.4846 13.9948 12.6114 14.1216 12.6114 14.278Z" fill="#3DFFFB"/>
</svg>
