<svg width="26" height="26" viewBox="0 0 26 26" fill="none" xmlns="http://www.w3.org/2000/svg">
<rect x="0.682232" y="0.682232" width="24.6355" height="24.6355" rx="1.9066" fill="#085D68" stroke="#3DFFFB" stroke-width="0.635535"/>
<path d="M0.999512 7.7301L1.79835 8.42909C1.93627 8.54977 2.01538 8.72411 2.01538 8.90738V17.0925C2.01538 17.2758 1.93627 17.4501 1.79835 17.5708L0.999512 18.2698V7.7301Z" fill="#3DFFFB"/>
<path d="M24.9993 18.2699L24.2004 17.5709C24.0625 17.4502 23.9834 17.2759 23.9834 17.0926L23.9834 8.90749C23.9834 8.72422 24.0625 8.54988 24.2004 8.4292L24.9993 7.73021L24.9993 18.2699Z" fill="#3DFFFB"/>
<path fill-rule="evenodd" clip-rule="evenodd" d="M13.0071 4.83594H13.6742V7.33591H13.0071V4.83594ZM13.3405 8.4693C12.7066 8.4693 12.0919 8.55185 11.5067 8.70679C11.5236 8.53814 11.5388 8.3695 11.5523 8.20358C12.1258 8.06569 12.7246 7.99265 13.3405 7.99265C17.5501 7.99265 20.9627 11.4052 20.9627 15.6149C20.9627 17.7625 20.0745 19.7027 18.6453 21.0881V21.1638H17.6386L17.6386 21.1639H9.04279L9.0428 21.1638H8.03582V21.0883C6.60658 19.7029 5.71829 17.7626 5.71829 15.6149C5.71829 14.3559 6.02352 13.1682 6.56403 12.1217C6.69553 12.2179 6.82728 12.3127 6.95534 12.4038C6.46889 13.3692 6.19494 14.46 6.19494 15.6149C6.19494 17.5026 6.92696 19.2193 8.12262 20.4968H9.11106L9.64882 15.2416H11.6126C11.8571 15.9611 12.5384 16.4787 13.3405 16.4787C14.1427 16.4787 14.8239 15.9611 15.0685 15.2416H17.0325L17.5703 20.4968H18.5584C19.754 19.2193 20.486 17.5026 20.486 15.6149C20.486 11.6685 17.2869 8.4693 13.3405 8.4693ZM11.4983 11.1865C10.6835 11.1865 10.0007 11.803 9.91775 12.6136L9.68831 14.8557H11.527C11.5197 14.7895 11.516 14.7223 11.516 14.6541C11.516 13.6465 12.3329 12.8296 13.3405 12.8296C14.3482 12.8296 15.1651 13.6465 15.1651 14.6541C15.1651 14.7223 15.1614 14.7895 15.1541 14.8557H16.9931L16.7636 12.6136C16.6807 11.803 15.9979 11.1865 15.183 11.1865H11.4983ZM14.7968 14.6541C14.7968 15.4582 14.1449 16.1101 13.3407 16.1101C12.5365 16.1101 11.8846 15.4582 11.8846 14.6541C11.8846 13.8499 12.5365 13.198 13.3407 13.198C14.1449 13.198 14.7968 13.8499 14.7968 14.6541ZM14.4409 14.6542C14.4409 15.2616 13.9485 15.754 13.3411 15.754C12.7337 15.754 12.2413 15.2616 12.2413 14.6542C12.2413 14.0468 12.7337 13.5544 13.3411 13.5544C13.9485 13.5544 14.4409 14.0468 14.4409 14.6542ZM17.0146 5.38979L16.3788 5.18818L15.6232 7.57123L16.2591 7.77285L17.0146 5.38979ZM11.3632 6.33767H4.89307C4.89307 6.33767 4.93423 9.56621 5.36924 10.7826C5.70678 11.2994 8.1089 12.8948 8.1089 12.8948C8.1089 12.8948 10.4515 11.2994 10.8485 10.7826C11.3115 9.56621 11.3632 6.33767 11.3632 6.33767ZM5.6808 6.96509H5.59984L5.60138 7.04604L5.6808 7.04454L5.60138 7.04608L5.60138 7.04617L5.60139 7.04652L5.60141 7.04789L5.60152 7.0532L5.60198 7.07386L5.60401 7.15283C5.60591 7.22125 5.609 7.31994 5.61373 7.44119C5.62318 7.68366 5.6392 8.01658 5.66547 8.37828C5.71773 9.0976 5.81132 9.94401 5.97911 10.4132L5.98227 10.422L5.9874 10.4298C6.02438 10.4865 6.08594 10.5529 6.16056 10.6238C6.23623 10.6957 6.32927 10.7758 6.43262 10.86C6.63938 11.0285 6.89035 11.2159 7.1325 11.3905C7.37481 11.5653 7.60907 11.7277 7.78269 11.8465C7.86952 11.9059 7.94123 11.9544 7.99125 11.988L8.04921 12.0269L8.06446 12.0371L8.06839 12.0397L8.06939 12.0404L8.06965 12.0405L8.06971 12.0406L8.11369 11.9744L8.06974 12.0406L8.11425 12.0702L8.15841 12.0401L8.11369 11.9744L8.15843 12.0401L8.1585 12.04L8.15875 12.0398L8.15972 12.0392L8.16355 12.0366L8.17842 12.0264L8.235 11.9876C8.28387 11.9539 8.35398 11.9054 8.43903 11.8461C8.6091 11.7273 8.83907 11.5649 9.07847 11.3903C9.31774 11.2157 9.56706 11.0285 9.77559 10.8603C9.98161 10.6941 10.1552 10.5406 10.2365 10.4348L10.2436 10.4256L10.2477 10.4147C10.4265 9.94501 10.5273 9.09806 10.5842 8.37878C10.6128 8.01702 10.6305 7.68404 10.641 7.44154C10.6462 7.32027 10.6497 7.22156 10.6519 7.15313L10.6542 7.07414L10.6547 7.05346L10.6549 7.04815L10.6549 7.04679L10.6549 7.04643L10.6549 7.04634L10.5755 7.04454L10.6549 7.0463L10.6567 6.96509H10.5755H5.6808ZM5.76283 7.14841L5.7622 7.12398H10.4938L10.4931 7.14811C10.4909 7.216 10.4875 7.31407 10.4822 7.43465C10.4718 7.67586 10.4542 8.00688 10.4258 8.36627C10.3691 9.08327 10.2702 9.89955 10.1034 10.347C10.032 10.4359 9.87712 10.5742 9.67583 10.7366C9.47017 10.9025 9.22319 11.088 8.98483 11.2619C8.7466 11.4357 8.51758 11.5975 8.34809 11.7158C8.26335 11.7749 8.19353 11.8232 8.14491 11.8567L8.11316 11.8785L8.07994 11.8562C8.03021 11.8227 7.95884 11.7745 7.87239 11.7154C7.69945 11.5971 7.46634 11.4354 7.22543 11.2617C6.98435 11.0878 6.73624 10.9025 6.533 10.7369C6.43135 10.654 6.34166 10.5767 6.26999 10.5086C6.20163 10.4437 6.153 10.3902 6.12543 10.3504C5.96815 9.90294 5.8761 9.08478 5.82394 8.36677C5.79782 8.00732 5.78189 7.67624 5.77249 7.435C5.76779 7.31441 5.76472 7.21631 5.76283 7.14841ZM8.12829 7.18444L8.42294 8.83113L10.2184 9.2745L8.42294 9.71787L8.12829 11.3646L7.83365 9.71787L6.03823 9.2745L7.83365 8.83113L8.12829 7.18444Z" fill="#3DFFFB"/>
</svg>
