<svg width="26" height="26" viewBox="0 0 26 26" fill="none" xmlns="http://www.w3.org/2000/svg">
<rect x="0.682232" y="0.682232" width="24.6355" height="24.6355" rx="1.9066" fill="#085D68" stroke="#3DFFFB" stroke-width="0.635535"/>
<path d="M1.00024 7.73022L1.79909 8.42921C1.93701 8.54989 2.01612 8.72423 2.01612 8.9075V17.0926C2.01612 17.2759 1.93701 17.4502 1.79908 17.5709L1.00024 18.2699V7.73022Z" fill="#3DFFFB"/>
<path d="M25 18.2699L24.2012 17.5709C24.0632 17.4502 23.9841 17.2759 23.9841 17.0926L23.9841 8.90749C23.9841 8.72422 24.0632 8.54988 24.2012 8.4292L25 7.73021L25 18.2699Z" fill="#3DFFFB"/>
<path fill-rule="evenodd" clip-rule="evenodd" d="M14.8365 6.77537C14.8365 7.59875 14.5088 8.32384 14.0117 8.7472C14.7635 8.76672 15.2248 8.8366 15.5805 9.08672C15.7602 9.21314 15.9167 9.36967 16.0431 9.54941C16.3902 10.0429 16.3902 10.74 16.3902 12.1342V15.4609H15.0036L14.7327 21.438C14.7289 21.5229 14.6589 21.5897 14.574 21.5897H11.417C11.3321 21.5897 11.2622 21.5229 11.2583 21.438L10.9875 15.4609H9.60107V12.1342C9.60107 10.74 9.60107 10.0429 9.94816 9.54941C10.0746 9.36967 10.2311 9.21314 10.4108 9.08672C10.7664 8.83666 11.2276 8.76676 11.9791 8.74722C11.482 8.32385 11.1543 7.59876 11.1543 6.77537C11.1543 5.46957 11.9786 4.41101 12.9954 4.41101C14.0122 4.41101 14.8365 5.46957 14.8365 6.77537Z" fill="#3DFFFB"/>
<path fill-rule="evenodd" clip-rule="evenodd" d="M10.4184 8.84437C10.1467 8.73735 9.85804 8.67886 9.53488 8.6461C9.71047 8.1974 9.72282 7.62835 9.54702 7.01967C9.15779 5.67202 7.9056 4.44287 6.64388 4.44287C5.38215 4.44287 4.83998 5.67202 5.22921 7.01967C5.40502 7.62837 5.7461 8.19744 6.18089 8.64613C5.7599 8.69151 5.43342 8.78617 5.18994 8.99058C5.02117 9.13227 4.88922 9.30772 4.79993 9.50918C4.66831 9.80613 4.67153 10.1505 4.74649 10.5698C4.81981 10.98 4.96873 11.4957 5.15781 12.1503L5.16296 12.1681L6.08606 15.3642L6.17423 15.6695H6.492H7.57517L9.40664 21.1204C9.48882 21.365 9.75422 21.5576 10.0091 21.5576H10.9304L10.9166 21.2523H9.9209C9.83595 21.2523 9.74748 21.1881 9.72009 21.1066L7.79069 15.3642H6.72159H6.40382L6.31565 15.0589L5.48072 12.1681C5.09386 10.8287 4.90042 10.1589 5.11057 9.6848C5.18711 9.51212 5.30021 9.36174 5.44487 9.24029C5.67157 9.04997 5.99597 8.96827 6.49192 8.9332C6.62204 8.924 6.76397 8.91801 6.91904 8.91411C6.78905 8.82809 6.66289 8.72909 6.5426 8.61898C6.09412 8.20847 5.72714 7.64343 5.54698 7.01967C5.18465 5.76515 5.71522 4.74816 6.73205 4.74816C7.74888 4.74816 8.86692 5.76515 9.22925 7.01967C9.40941 7.64342 9.36882 8.20846 9.15749 8.61896C9.1008 8.72908 9.03182 8.82807 8.95152 8.9141C9.10885 8.918 9.25424 8.92399 9.38968 8.93318C9.61452 8.94844 9.81193 8.97255 9.99096 9.01061C10.1177 8.94092 10.259 8.88665 10.4184 8.84437ZM15.5778 8.84558C15.7362 8.88792 15.8767 8.94219 16.0028 9.01178C16.1834 8.97302 16.3826 8.94857 16.6099 8.93315C16.7454 8.92397 16.8908 8.91799 17.0481 8.91409C16.9678 8.82806 16.8988 8.72906 16.8421 8.61894C16.6308 8.20844 16.5902 7.64342 16.7704 7.01967C17.1327 5.76515 18.2508 4.74816 19.2676 4.74816C20.2844 4.74816 20.815 5.76515 20.4527 7.01967C20.2725 7.64344 19.9055 8.20849 19.457 8.619C19.3367 8.72911 19.2106 8.8281 19.0806 8.91412C19.2356 8.91803 19.3776 8.92402 19.5077 8.93323C20.0034 8.96831 20.3277 9.05001 20.5544 9.24029C20.699 9.36174 20.8121 9.51212 20.8887 9.6848C21.0988 10.1589 20.9054 10.8287 20.5185 12.1681L19.6836 15.0589L19.5954 15.3642H19.2777H18.2089L16.2795 21.1066C16.2522 21.1881 16.1637 21.2523 16.0787 21.2523H15.076L15.0622 21.5576H15.9906C16.2454 21.5576 16.5108 21.365 16.593 21.1204L18.4245 15.6695H19.5072H19.825L19.9132 15.3642L20.8363 12.1681L20.8414 12.1503L20.8415 12.1502L20.8415 12.1501C21.0305 11.4956 21.1794 10.98 21.2528 10.5698C21.3277 10.1505 21.3309 9.80613 21.1993 9.50918C21.11 9.30772 20.9781 9.13227 20.8093 8.99058C20.5659 8.78622 20.2395 8.69156 19.8187 8.64617C20.2535 8.19747 20.5946 7.62839 20.7704 7.01967C21.1597 5.67202 20.6175 4.44287 19.3558 4.44287C18.094 4.44287 16.8419 5.67202 16.4526 7.01967C16.2768 7.62833 16.2892 8.19737 16.4647 8.64606C16.1402 8.67894 15.8505 8.73775 15.5778 8.84558Z" fill="#3DFFFB"/>
</svg>
