<svg width="26" height="26" viewBox="0 0 26 26" fill="none" xmlns="http://www.w3.org/2000/svg">
<rect x="0.682232" y="0.682232" width="24.6355" height="24.6355" rx="1.9066" fill="#085D68" stroke="#3DFFFB" stroke-width="0.635535"/>
<path d="M1.00024 7.73022L1.79909 8.42921C1.93701 8.54989 2.01612 8.72423 2.01612 8.9075V17.0926C2.01612 17.2759 1.93701 17.4502 1.79908 17.5709L1.00024 18.2699V7.73022Z" fill="#3DFFFB"/>
<path d="M25.0002 18.2699L24.2014 17.5709C24.0635 17.4502 23.9844 17.2759 23.9844 17.0926L23.9844 8.90749C23.9844 8.72422 24.0635 8.54988 24.2014 8.4292L25.0002 7.73021L25.0002 18.2699Z" fill="#3DFFFB"/>
<path d="M20.2559 4.4288C19.8138 4.43631 19.3936 4.66557 19.1926 5.07153C18.9551 5.53149 19.0757 6.07013 19.4301 6.42422L18.7724 6.1059L18.6006 6.44747L16.9234 4.81794L15.5386 6.94141L13.7846 5.19707L12.6263 8.26621L11.552 4.90163L10.1964 7.06373L9.51672 5.0912L7.38277 6.41385L7.22601 6.10447L6.56463 6.42494C6.91834 6.06978 7.0382 5.53184 6.80543 5.07188C6.60008 4.66593 6.17987 4.43667 5.73846 4.42915C5.53785 4.42558 5.33323 4.46814 5.14212 4.56042C4.53153 4.85657 4.24981 5.57476 4.54834 6.16527C4.7811 6.62559 5.29084 6.85843 5.79364 6.79834L5.13153 7.11917L5.42312 7.69752L6.17621 7.3327L6.4024 7.77978L5.6504 8.1446L5.94235 8.72403L6.69508 8.35921L6.9209 8.80629L6.16854 9.17111L6.46049 9.75053L7.21359 9.38571L7.44124 9.8328L6.68741 10.1976L6.979 10.777L7.73356 10.4122L7.98569 10.9094C7.05172 11.5746 6.5566 12.7692 6.56427 13.5311C6.61908 15.2228 7.81395 16.371 9.29748 17.6371C10.591 18.7387 12.0782 19.8976 12.9844 21.5714C12.988 21.5679 12.988 21.5643 12.9917 21.5607C12.9954 21.5643 12.9954 21.5679 12.999 21.5714C13.9052 19.8976 15.3924 18.7387 16.6859 17.6371C18.1695 16.371 19.3643 15.2228 19.4191 13.5311C19.4264 12.7728 18.9368 11.5818 18.0087 10.9165L18.2645 10.4122L19.0208 10.777L19.3059 10.1976L18.5531 9.8328L18.7833 9.38571L19.5324 9.75053L19.8247 9.17111L19.0757 8.80629L19.3022 8.35921L20.0549 8.72403L20.3473 8.1446L19.5945 7.77978L19.8174 7.3327L20.5738 7.69752L20.8661 7.1181L20.2011 6.79977C20.7054 6.857 21.2133 6.62452 21.4508 6.1667C21.7504 5.57441 21.469 4.85621 20.8552 4.56006C20.6652 4.46778 20.4569 4.42522 20.2559 4.4288ZM9.05266 6.1152L9.80539 8.61673L11.5118 7.00686L12.3851 10.2191L14.3802 7.13384L15.6811 9.1425L16.8467 6.28616L18.5276 6.58696L18.48 6.68174L19.2291 7.04657L19.0026 7.49365L18.2535 7.12883L17.9612 7.70825L18.7103 8.07307L18.4837 8.52016L17.7346 8.15534L17.4423 8.73476L18.195 9.09958L17.9685 9.54666L17.2158 9.18184L16.9234 9.76126L17.6762 10.1261L17.435 10.5982C17.1573 10.4873 16.854 10.4229 16.5215 10.4194C15.133 10.4015 13.5033 11.3386 12.9917 12.8408C12.4801 11.3386 10.8504 10.4015 9.46191 10.4194C9.1367 10.4229 8.83342 10.4873 8.55937 10.5946L8.32186 10.1261L9.07459 9.76126L8.78226 9.18184L8.02953 9.54666L7.80298 9.09958L8.55571 8.73476L8.26339 8.15534L7.51066 8.52016L7.28521 8.07307L8.03684 7.70825L7.74452 7.13026L6.99289 7.49365L6.76634 7.04621L7.51797 6.68174L7.43758 6.52544L9.05266 6.1152Z" fill="#3DFFFB"/>
</svg>
