<svg width="26" height="26" viewBox="0 0 26 26" fill="none" xmlns="http://www.w3.org/2000/svg">
<rect x="0.682477" y="0.682232" width="24.6355" height="24.6355" rx="1.9066" fill="#085D68" stroke="#3DFFFB" stroke-width="0.635535"/>
<path d="M1 7.73022L1.79884 8.42921C1.93676 8.54989 2.01587 8.72423 2.01587 8.9075V17.0926C2.01587 17.2759 1.93676 17.4502 1.79884 17.5709L1 18.2699V7.73022Z" fill="#3DFFFB"/>
<path d="M25 18.2699L24.2012 17.5709C24.0632 17.4502 23.9841 17.2759 23.9841 17.0926L23.9841 8.90749C23.9841 8.72422 24.0632 8.54988 24.2012 8.4292L25 7.73021L25 18.2699Z" fill="#3DFFFB"/>
<path fill-rule="evenodd" clip-rule="evenodd" d="M9.39698 11.5306C6.88558 14.0167 5.00657 16.4872 4.03345 18.5085C4.15478 16.1204 5.03623 13.8227 8.52833 10.7644C7.02997 9.45047 5.60246 8.24802 4.26776 7.29814C5.37687 7.83222 7.17509 8.9719 9.05133 10.3171C9.43301 9.9986 9.85494 9.66754 10.3094 9.32974C8.15654 7.51459 6.04616 5.87243 4.40072 4.65849C6.29799 5.68061 8.6577 7.12602 11.0214 8.81388C11.4665 8.49923 11.9357 8.18139 12.423 7.86487C10.6502 6.48645 8.89164 5.32498 7.25442 4.42441C9.19015 5.26814 11.1981 6.36196 13.0008 7.49561C14.8036 6.36184 16.8118 5.26788 18.7477 4.42407C17.1103 5.32472 15.3516 6.48632 13.5786 7.8649C14.0661 8.18151 14.5354 8.49944 14.9806 8.81418C17.3446 7.12605 19.7047 5.6804 21.6022 4.65814C19.9566 5.87224 17.8459 7.51466 15.6927 9.3301C16.1472 9.66791 16.5691 9.99898 16.9508 10.3175C18.8274 8.97206 20.6259 7.83215 21.7352 7.29799C20.4003 8.24803 18.9725 9.4507 17.4739 10.7648C20.9659 13.8231 21.8473 16.1208 21.9687 18.5089C20.9955 16.4876 19.1166 14.0171 16.6053 11.5311C16.2908 11.8098 15.9735 12.0921 15.6536 12.3767L15.5771 12.4448C19.0681 15.7459 20.3019 18.1198 20.8706 19.812C19.1215 17.8131 17.2052 15.661 14.6828 13.2445C14.3739 13.5231 14.0699 13.7998 13.7712 14.0744C17.4618 17.4102 18.7493 19.8036 19.2753 21.5764C18.0206 19.7607 15.7793 17.3893 13.0014 14.7884C10.2236 17.3893 7.98234 19.7606 6.72761 21.5762C7.2536 19.8035 8.54107 17.4101 12.2316 14.0744C11.9329 13.7998 11.6288 13.523 11.3199 13.2444C8.7976 15.6608 6.88133 17.8128 5.13236 19.8117C5.70104 18.1195 6.93475 15.7457 10.4255 12.4447L10.3493 12.3769L10.3493 12.3769L10.3491 12.3767L10.3488 12.3765C10.0288 12.0917 9.7115 11.8094 9.39698 11.5306ZM12.022 12.5798C12.3586 12.8532 12.6864 13.1263 13.0014 13.3965C13.3163 13.1264 13.6441 12.8533 13.9807 12.5799C13.8202 12.4299 13.6574 12.2788 13.4921 12.1268C13.3295 11.9771 13.1658 11.8277 13.0013 11.6787C12.8369 11.8276 12.6733 11.9769 12.5108 12.1264C12.3454 12.2786 12.1825 12.4297 12.022 12.5798ZM12.1764 10.9407C11.8099 11.2367 11.4479 11.5371 11.0924 11.8411C10.7196 11.5511 10.3411 11.2635 9.96171 10.9816C10.3164 10.6429 10.6824 10.3045 11.0591 9.9675C11.4324 10.288 11.8056 10.6129 12.1764 10.9407ZM13.8261 10.9407C14.1927 11.2368 14.5547 11.5372 14.9102 11.8412C15.2828 11.5513 15.6612 11.2638 16.0405 10.982C15.6858 10.6433 15.3198 10.3049 14.9431 9.96786C14.5698 10.2883 14.1968 10.613 13.8261 10.9407ZM14.2399 9.35119C13.8248 9.65669 13.4111 9.9691 13.0012 10.2874C12.5913 9.969 12.1774 9.65648 11.7622 9.35089C11.8997 9.23262 12.0386 9.11461 12.1787 8.99691C12.4525 8.76681 12.7267 8.54162 13.0008 8.32149C13.2751 8.54173 13.5494 8.76704 13.8234 8.99725C13.9635 9.11494 14.1023 9.23294 14.2399 9.35119Z" fill="#3DFFFB"/>
</svg>
