<svg width="28" height="22" viewBox="0 0 28 22" fill="none" xmlns="http://www.w3.org/2000/svg">
<path d="M4.19995 10.2667H23.7999V18C23.7999 19.8856 23.7999 20.8284 23.2142 21.4142C22.6284 22 21.6856 22 19.7999 22H8.19995C6.31433 22 5.37152 22 4.78574 21.4142C4.19995 20.8284 4.19995 19.8856 4.19995 18V10.2667Z" fill="#131313"/>
<path d="M0.760295 5.1965L4.2 8.8L9.8 2.93333L6.20763 0.424376C5.8467 0.172301 5.36338 0.185912 5.01722 0.4579L0.865829 3.71971C0.401721 4.08436 0.352756 4.76955 0.760295 5.1965Z" fill="#131313"/>
<path d="M27.2397 5.1965L23.8 8.8L18.2 2.93333L21.7924 0.424376C22.1533 0.172301 22.6366 0.185912 22.9828 0.4579L27.1342 3.71971C27.5983 4.08436 27.6472 4.76955 27.2397 5.1965Z" fill="#131313"/>
<path d="M22.4001 8.8V10.2667H5.6001V8.8L9.8001 4.4H18.2001L22.4001 8.8Z" stroke="#131313" stroke-width="2" stroke-linecap="round"/>
</svg>
