<svg width="26" height="26" viewBox="0 0 26 26" fill="none" xmlns="http://www.w3.org/2000/svg">
<rect x="0.682232" y="0.682232" width="24.6355" height="24.6355" rx="1.9066" fill="#085D68" stroke="#3DFFFB" stroke-width="0.635535"/>
<path d="M1 7.7301L1.79884 8.42909C1.93676 8.54977 2.01587 8.72411 2.01587 8.90738V17.0925C2.01587 17.2758 1.93676 17.4501 1.79884 17.5708L1 18.2698V7.7301Z" fill="#3DFFFB"/>
<path d="M25 18.2699L24.2012 17.5709C24.0632 17.4502 23.9841 17.2759 23.9841 17.0926L23.9841 8.90749C23.9841 8.72422 24.0632 8.54988 24.2012 8.4292L25 7.73021L25 18.2699Z" fill="#3DFFFB"/>
<path fill-rule="evenodd" clip-rule="evenodd" d="M16.5224 22.0613C17.6214 22.9424 19.8226 22.2728 21.2511 20.491C22.6796 18.7092 22.7945 16.49 21.6954 15.6089C20.5964 14.7278 18.6867 15.4862 17.2582 17.268C15.8297 19.0498 15.4233 21.1802 16.5224 22.0613ZM17.1102 21.3281C17.9595 22.009 19.5428 21.4448 20.6466 20.068C21.7504 18.6911 22.0929 16.8561 21.2437 16.1752C20.3944 15.4944 18.675 16.2255 17.5712 17.6023C16.4674 18.9792 16.261 20.6472 17.1102 21.3281Z" fill="#3DFFFB"/>
<path fill-rule="evenodd" clip-rule="evenodd" d="M17.7176 20.5704C18.3088 21.0444 19.4949 20.6971 20.2633 19.7388C21.0316 18.7804 21.0913 17.5738 20.5001 17.0998C19.909 16.6259 18.8835 17.02 18.1152 17.9784C17.3468 18.9367 17.1265 20.0965 17.7176 20.5704ZM18.0338 20.176C18.4906 20.5422 19.3423 20.2388 19.936 19.4982C20.5297 18.7577 20.6407 17.8604 20.1839 17.4942C19.7271 17.128 18.8755 17.4315 18.2818 18.172C17.6881 18.9126 17.577 19.8098 18.0338 20.176Z" fill="#3DFFFB"/>
<path d="M19.5385 19.1795C19.2301 19.5641 18.7879 19.7217 18.5506 19.5315C18.3134 19.3413 18.3711 18.8754 18.6794 18.4908C18.9877 18.1062 19.43 17.9486 19.6672 18.1388C19.9044 18.329 19.8468 18.7949 19.5385 19.1795Z" fill="#3DFFFB"/>
<path d="M9.74216 10.007C10.5559 9.45025 8.27669 5.86328 6.93562 3.84462L13.5721 11.8035L19.1095 18.8356L11.7024 14.1012L3.65415 7.83406C6.94261 9.87014 9.03208 10.3656 9.74216 10.007Z" fill="#3DFFFB"/>
</svg>
