<svg width="22" height="24" viewBox="0 0 22 24" fill="none" xmlns="http://www.w3.org/2000/svg">
<path fill-rule="evenodd" clip-rule="evenodd" d="M0.585786 0.585786C0 1.17157 0 2.11438 0 4V20C0 21.8856 0 22.8284 0.585786 23.4142C1.17157 24 2.11438 24 4 24H18C19.8856 24 20.8284 24 21.4142 23.4142C22 22.8284 22 21.8856 22 20V4C22 2.11438 22 1.17157 21.4142 0.585786C20.8284 0 19.8856 0 18 0H4C2.11438 0 1.17157 0 0.585786 0.585786ZM6.28571 6.05882C5.73343 6.05882 5.28571 6.50654 5.28571 7.05882C5.28571 7.61111 5.73343 8.05882 6.28571 8.05882H15.7143C16.2666 8.05882 16.7143 7.61111 16.7143 7.05882C16.7143 6.50654 16.2666 6.05882 15.7143 6.05882H6.28571ZM6.28571 11.7059C5.73343 11.7059 5.28571 12.1536 5.28571 12.7059C5.28571 13.2582 5.73343 13.7059 6.28571 13.7059H15.7143C16.2666 13.7059 16.7143 13.2582 16.7143 12.7059C16.7143 12.1536 16.2666 11.7059 15.7143 11.7059H6.28571ZM6.28571 17.3529C5.73343 17.3529 5.28571 17.8007 5.28571 18.3529C5.28571 18.9052 5.73343 19.3529 6.28571 19.3529H12.5714C13.1237 19.3529 13.5714 18.9052 13.5714 18.3529C13.5714 17.8007 13.1237 17.3529 12.5714 17.3529H6.28571Z" fill="#131313"/>
</svg>
